<svg id="Layer_1" data-name="Layer 1" xmlns="http://www.w3.org/2000/svg" viewBox="0 0 563.1 211"><defs><style>.cls-1{fill:#591d6d;}</style></defs><title>SoftdocsCropped</title><rect class="cls-1" y="164.2" width="32.6" height="42.8"/><rect class="cls-1" x="24.98" y="70.29" width="35.3" height="25.7" transform="translate(-49.13 65.53) rotate(-51.99)"/><rect class="cls-1" x="102.12" y="13.58" width="30.2" height="22" transform="translate(1.35 54.87) rotate(-26.49)"/><polygon class="cls-1" points="202.1 0 201.8 21 227.6 21.4 227.9 0.4 202.1 0"/><rect class="cls-1" x="287.3" y="22.05" width="17.7" height="21.8" transform="translate(130.02 280.32) rotate(-62.46)"/><rect class="cls-1" x="336.1" y="72.59" width="15.6" height="19.2" transform="matrix(0.84, -0.55, 0.55, 0.84, 11.48, 202.69)"/><path class="cls-1" d="M108.3,153.1c8.8,0,16.3,2.6,22.5,7.7a27.91,27.91,0,0,1,0,42.3,33.51,33.51,0,0,1-22.3,7.8h-.3A33.43,33.43,0,0,1,86,203.1,26.4,26.4,0,0,1,76.2,182H89a14.17,14.17,0,0,0,6.1,11.9,22.75,22.75,0,0,0,26.2-.1,14,14,0,0,0,6.1-11.9,14.35,14.35,0,0,0-6.1-12,21.18,21.18,0,0,0-13.2-4.1h-3.2a25.88,25.88,0,0,1-18.4-44,25,25,0,0,1,18.4-7.4h6.4A25.28,25.28,0,0,1,137,140.2H124.2a12.21,12.21,0,0,0-3.7-9.2,12.36,12.36,0,0,0-9.2-3.7h-6.4a12.21,12.21,0,0,0-9.2,3.7,12.36,12.36,0,0,0-3.7,9.2,12.21,12.21,0,0,0,3.7,9.2,12.75,12.75,0,0,0,9.2,3.7Z"/><path class="cls-1" d="M201.5,155.4a33,33,0,0,1-.1,45.8,32.84,32.84,0,0,1-45.8,0,31.07,31.07,0,0,1-9.3-22.9c0-9.1,3.1-16.8,9.3-22.9a31.07,31.07,0,0,1,22.9-9.3c9.2.1,16.8,3.1,23,9.3m-36.8,9.2a20.06,20.06,0,1,0,13.8-5.5,18.69,18.69,0,0,0-13.8,5.5"/><path class="cls-1" d="M234.6,131a12.36,12.36,0,0,0-3.7,9.2v16.1h22.5v12.8H230.9v41.8H218.1V140.2a25.27,25.27,0,0,1,7.4-18.4,25.7,25.7,0,0,1,44,18.4H256.6a12.64,12.64,0,0,0-12.9-12.9,13.3,13.3,0,0,0-9.1,3.7"/><polygon class="cls-1" points="274.1 114.5 274.1 211 287 211 287 156.3 306.3 156.3 306.3 143.4 287 143.4 287 114.5 274.1 114.5"/><path class="cls-1" d="M367.7,114.5v67.6h-.2a30.44,30.44,0,0,1-10.3,20.7,33,33,0,0,1-44.6-1c-6.2-6.1-9.3-13.8-9.3-22.9s3.1-16.8,9.3-22.9a31.07,31.07,0,0,1,22.9-9.3,31.42,31.42,0,0,1,19.3,6.5V114.6h12.9v-.1Zm-45.9,50.6a20.06,20.06,0,1,0,13.8-5.5,18.31,18.31,0,0,0-13.8,5.5"/><path class="cls-1" d="M429.1,155.4a33,33,0,0,1-.1,45.8,32.2,32.2,0,0,1-55.1-22.9A31.6,31.6,0,0,1,406,146.1c9.4.1,17,3.1,23.1,9.3m-36.7,9.2a20.06,20.06,0,1,0,13.8-5.5,18.69,18.69,0,0,0-13.8,5.5"/><path class="cls-1" d="M490.7,191.1l9.1,9.1a30.78,30.78,0,0,1-24,10.8,31.21,31.21,0,0,1-22.9-9.2c-6.2-6.1-9.3-13.8-9.3-22.9s3.1-16.8,9.3-22.9,13.8-9.2,22.9-9.2a30.79,30.79,0,0,1,24.6,11.5l-9.2,9.1a18.21,18.21,0,0,0-15.4-7.7,19.3,19.3,0,1,0,0,38.6,19,19,0,0,0,14.9-7.2"/><path class="cls-1" d="M552.8,176.8c6.9,3.7,10.3,8.6,10.3,14.8s-3.4,11.2-10.3,14.8a40.69,40.69,0,0,1-37.2,0c-6.9-3.7-10.3-8.6-10.3-14.8h12.8c0,2.3,2.2,4,6.7,5.2a36.14,36.14,0,0,0,9.4,1.2c8.6,0,12.8-2.1,12.8-6.4s-4.3-6.4-12.8-6.4a38.76,38.76,0,0,1-18.6-4.5c-6.9-3.7-10.3-8.7-10.3-14.9s3.4-11.2,10.3-14.8a39.33,39.33,0,0,1,18.6-4.5,38.76,38.76,0,0,1,18.6,4.5c6.9,3.6,10.3,8.6,10.3,14.8H550.3c0-2.2-2.3-4-6.8-5.2a35.94,35.94,0,0,0-9.3-1.2c-8.6,0-12.9,2.1-12.9,6.4s4.3,6.4,12.9,6.4a40.62,40.62,0,0,1,18.6,4.6"/></svg>