<svg id="Layer_1" data-name="Layer 1" xmlns="http://www.w3.org/2000/svg" viewBox="0 0 101.78 43.85"><defs><style>.cls-1{fill:#000000;}.cls-2{fill:none;}</style></defs><title>splunkCropped</title><path d="M12.48,32.12A3.91,3.91,0,0,1,12.05,34a4.83,4.83,0,0,1-1.16,1.42,6.26,6.26,0,0,1-1.81.9,7.77,7.77,0,0,1-2.27.34,8.62,8.62,0,0,1-2.66-.38,9.07,9.07,0,0,1-2.37-1.33l1.29-2.11A11.73,11.73,0,0,0,4.75,34a3.32,3.32,0,0,0,1.54.35,2.27,2.27,0,0,0,1.55-.52,1.67,1.67,0,0,0,.6-1.33,3,3,0,0,0-.09-.69A2.31,2.31,0,0,0,8,31.14a4.15,4.15,0,0,0-.78-.73l-1.28-.95L4.75,28.6a7.42,7.42,0,0,1-1-1,5.89,5.89,0,0,1-.78-1.16A3.91,3.91,0,0,1,2.64,25,3.69,3.69,0,0,1,3,23.28,4,4,0,0,1,4.1,22a5.57,5.57,0,0,1,1.63-.86,6.34,6.34,0,0,1,2.06-.3,8.25,8.25,0,0,1,2.28.3,7.54,7.54,0,0,1,2,.9l-1.16,1.9A4.38,4.38,0,0,0,8.4,23a1.9,1.9,0,0,0-1.33.43,1.35,1.35,0,0,0-.52,1.07A1.54,1.54,0,0,0,7,25.61,16.16,16.16,0,0,0,8.62,27l1.9,1.46a8,8,0,0,1,1.2,1.2,2.8,2.8,0,0,1,.6,1.12,8.07,8.07,0,0,1,.18,1.37m13.31-3.52a6.84,6.84,0,0,0-1-3.9,3.22,3.22,0,0,0-2.75-1.42,3.32,3.32,0,0,0-2.87,1.5,6.82,6.82,0,0,0-1.08,4.12,7,7,0,0,0,1,4A3.35,3.35,0,0,0,22,34.37a2.71,2.71,0,0,0,1.8-.56A4.56,4.56,0,0,0,25,32.39a5.29,5.29,0,0,0,.6-1.89,7.35,7.35,0,0,0,.22-1.9M30,28.43a8.72,8.72,0,0,1-.56,3.26A8.29,8.29,0,0,1,28,34.31,6.67,6.67,0,0,1,25.64,36a6.56,6.56,0,0,1-2.88.6,5.59,5.59,0,0,1-1.29-.13,6,6,0,0,1-1.16-.38,5.65,5.65,0,0,1-1.07-.73,14.79,14.79,0,0,1-1.12-1.12v9.58H14.23V21.22h3.86v2.2a6.25,6.25,0,0,1,2.28-1.93,6.12,6.12,0,0,1,2.87-.6,6.32,6.32,0,0,1,2.71.55A6.82,6.82,0,0,1,28.05,23a7.24,7.24,0,0,1,1.38,2.36,8.26,8.26,0,0,1,.56,3.1m18.72,7.84v-2a7.76,7.76,0,0,1-2.36,1.85,6.61,6.61,0,0,1-2.8.56,5.88,5.88,0,0,1-3-.69,3.89,3.89,0,0,1-1.76-2.11,5.39,5.39,0,0,1-.22-.68l-.13-.82a7.59,7.59,0,0,1-.08-1.07v-10h4v8.63l.09,1.76a3.76,3.76,0,0,0,.38,1.07A2.57,2.57,0,0,0,45.26,34a3.12,3.12,0,0,0,3.1-1.9,4.13,4.13,0,0,0,.3-1.07,15.76,15.76,0,0,0,.09-1.68V21.21h4V36.33h-4Zm17.13,0V27.71L65.75,26a3.87,3.87,0,0,0-.38-1.07,2.53,2.53,0,0,0-2.45-1.25,4.06,4.06,0,0,0-1.93.48,2.83,2.83,0,0,0-1.2,1.37,4.08,4.08,0,0,0-.3,1.12,13,13,0,0,0-.09,1.63v8.11h-4V21.22h4v2a7.64,7.64,0,0,1,2.36-1.85,6.46,6.46,0,0,1,2.8-.56,5.91,5.91,0,0,1,3,.73,4.08,4.08,0,0,1,1.76,2.11,3.38,3.38,0,0,1,.21.68l.18.82a7.59,7.59,0,0,1,.08,1.07V36.29Z"/><path d="M72.58,36.29h4v-8l6,8.29,3.71-1.28L80.22,27.8l5.1-5.5-3-1.29L77,27.2h-.43v-13h-4Zm-40.88.86h4V15h-4Z"/><path class="cls-1" d="M89.71,24.1V21.39l12.07,6.05v2.45l-12.07,6V33.24l9.36-4.59Z"/><rect class="cls-2" width="101.78" height="43.85"/></svg>
