<svg id="Layer_1" data-name="Layer 1" xmlns="http://www.w3.org/2000/svg" viewBox="0 0 288 133.67"><defs><style>.cls-1{fill:none;}</style></defs><title>splunk2crop</title><path d="M30.73,160.17a11.6,11.6,0,0,1-1.22,5.3,11.93,11.93,0,0,1-3.39,4.12A16.13,16.13,0,0,1,21,172.24a21.44,21.44,0,0,1-6.56.95A23.27,23.27,0,0,1,6.76,172,22.78,22.78,0,0,1,0,168.18l3.73-6.06a24.07,24.07,0,0,0,4.86,3.29,10.16,10.16,0,0,0,4.43,1A6.66,6.66,0,0,0,17.49,165a4.81,4.81,0,0,0,1.69-3.87,6,6,0,0,0-.31-2,5.59,5.59,0,0,0-1.12-1.87,15.89,15.89,0,0,0-2.26-2.09c-1-.75-2.17-1.68-3.68-2.78-1.15-.82-2.29-1.65-3.38-2.52a24.94,24.94,0,0,1-3-2.78,13,13,0,0,1-2.17-3.3,10.21,10.21,0,0,1-.82-4.17,10.68,10.68,0,0,1,1.12-4.91A11.48,11.48,0,0,1,6.63,131a14.31,14.31,0,0,1,4.68-2.43,19.67,19.67,0,0,1,5.93-.87,23.81,23.81,0,0,1,6.55.9,22.1,22.1,0,0,1,5.85,2.63l-3.38,5.46a12.48,12.48,0,0,0-7.3-2.43,5.93,5.93,0,0,0-3.86,1.22,3.72,3.72,0,0,0-1.52,3,4.37,4.37,0,0,0,1.35,3.13,43.51,43.51,0,0,0,4.63,3.91c2.2,1.62,4,3,5.49,4.26a23.64,23.64,0,0,1,3.44,3.44,9.73,9.73,0,0,1,1.75,3.26,12.76,12.76,0,0,1,.49,3.66m38.39-10.23a29.91,29.91,0,0,1-.53,5.44,18.93,18.93,0,0,1-1.79,5.38,12,12,0,0,1-3.32,4.08,8.18,8.18,0,0,1-5.21,1.61A9.66,9.66,0,0,1,50,162.27q-3-4.17-3-11.47,0-7.47,3.06-11.87a9.61,9.61,0,0,1,8.31-4.39,9.12,9.12,0,0,1,7.86,4.13q2.91,4.16,2.9,11.27m12.13-.44a26.68,26.68,0,0,0-1.39-8.85,20,20,0,0,0-4-6.86,18.48,18.48,0,0,0-6.09-4.48,18.7,18.7,0,0,0-7.78-1.6,18.27,18.27,0,0,0-8.27,1.78,20.06,20.06,0,0,0-6.61,5.59l0-6.33H35.94v65.1H47.1V166.34a29.48,29.48,0,0,0,3.18,3.22,16.45,16.45,0,0,0,3.09,2.13,12.43,12.43,0,0,0,3.31,1.17,19.26,19.26,0,0,0,3.74.34,19.4,19.4,0,0,0,14.9-6.76,23.86,23.86,0,0,0,4.36-7.51,27,27,0,0,0,1.57-9.43m5,22.64H97.67V108.42H86.22Zm60.35,0V128.69H135.12v23.39a34.51,34.51,0,0,1-.26,4.83A12.38,12.38,0,0,1,134,160c-1.63,3.59-4.59,5.4-8.9,5.4q-5.06,0-7.07-3.66a9.44,9.44,0,0,1-1.09-3.13,31.62,31.62,0,0,1-.31-5.05V128.7H105.17v24.7c0,1.68,0,3.1,0,4.26a27,27,0,0,0,.22,3.09c.11.91.25,1.7.39,2.39a9.75,9.75,0,0,0,.65,2,11.72,11.72,0,0,0,5.09,6.05,17,17,0,0,0,8.65,2,19.15,19.15,0,0,0,8.09-1.6,21.54,21.54,0,0,0,6.79-5.26l0,5.82h11.44Zm49.39,0V147.5c0-1.68,0-3.12-.05-4.3a28.28,28.28,0,0,0-.22-3.08,18.7,18.7,0,0,0-.44-2.29c-.17-.66-.37-1.32-.6-2a12.16,12.16,0,0,0-5.09-6,16.45,16.45,0,0,0-8.66-2.13,19.15,19.15,0,0,0-8.09,1.61,21.8,21.8,0,0,0-6.79,5.26l0-5.81H154.46v43.37H166V148.71a40.16,40.16,0,0,1,.22-4.72,12.65,12.65,0,0,1,.84-3.17,8.13,8.13,0,0,1,3.45-3.94,10.77,10.77,0,0,1,5.53-1.35c3.37,0,5.74,1.22,7.07,3.64a9.69,9.69,0,0,1,1.08,3.12,30.2,30.2,0,0,1,.31,5v24.81H196Zm47.41-2.86-17.45-21.7,14.75-15.8L232,128.05l-15.36,17.78h-1.22v-37.4H203.87v63.72h11.54V149.06L232.68,173ZM288,153.71V146.6l-34.72-17.42V137l26.91,13.1-26.91,13.26V171Zm-31.36-35.78a3.91,3.91,0,1,0,3.85,3.89,3.87,3.87,0,0,0-3.85-3.89Zm0,.6a3.31,3.31,0,1,1-3.14,3.29,3.21,3.21,0,0,1,3.14-3.29Zm-.74,3.69h.48a.81.81,0,0,1,.93.76,2.8,2.8,0,0,0,.3,1.1h.73a3.32,3.32,0,0,1-.28-1.07c-.09-.65-.35-1-.73-1.06v0a1.07,1.07,0,0,0,.84-1,1.05,1.05,0,0,0-.4-.91,2.29,2.29,0,0,0-1.35-.32,6.93,6.93,0,0,0-1.23.1v4.35h.69v-1.86Zm0-2a2.85,2.85,0,0,1,.5,0c.77,0,1.05.39,1.05.76,0,.54-.49.75-1.05.75h-.5Z" transform="translate(0 -60.18)"/><rect class="cls-1" width="288" height="133.67"/></svg>