<?xml version="1.0" encoding="utf-8"?>
<!-- Generator: Adobe Illustrator 24.1.0, SVG Export Plug-In . SVG Version: 6.00 Build 0)  -->
<svg version="1.1" id="Layer_1" xmlns="http://www.w3.org/2000/svg" xmlns:xlink="http://www.w3.org/1999/xlink" x="0px" y="0px"
	 viewBox="0 0 300 88.99" style="enable-background:new 0 0 300 88.99;" xml:space="preserve">
<path d="M32.01,53.9c0,1.99-0.42,3.83-1.27,5.52c-0.84,1.69-2.02,3.12-3.53,4.3c-1.51,1.18-3.3,2.1-5.38,2.76
	c-2.08,0.66-4.36,0.99-6.83,0.99c-2.96,0-5.61-0.4-7.96-1.21C4.7,65.46,2.35,64.12,0,62.25l3.89-6.32c1.87,1.57,3.55,2.71,5.06,3.43
	c1.5,0.72,3.04,1.08,4.61,1.08c1.93,0,3.48-0.49,4.66-1.49c1.18-1,1.76-2.34,1.76-4.03c0-0.72-0.11-1.41-0.32-2.04
	c-0.21-0.63-0.6-1.28-1.17-1.95c-0.57-0.66-1.35-1.39-2.35-2.17c-0.99-0.78-2.27-1.75-3.84-2.9c-1.2-0.85-2.38-1.72-3.52-2.62
	c-1.15-0.91-2.18-1.87-3.12-2.9c-0.93-1.03-1.68-2.17-2.26-3.44c-0.57-1.27-0.86-2.72-0.86-4.34c0-1.87,0.39-3.58,1.17-5.12
	c0.78-1.54,1.85-2.85,3.2-3.93c1.35-1.09,2.97-1.93,4.87-2.53c1.89-0.6,3.95-0.91,6.18-0.91c2.35,0,4.62,0.31,6.82,0.94
	c2.2,0.63,4.23,1.54,6.1,2.74l-3.53,5.68c-2.41-1.69-4.94-2.53-7.6-2.53c-1.62,0-2.97,0.42-4.02,1.27c-1.06,0.85-1.58,1.9-1.58,3.17
	c0,1.21,0.46,2.3,1.4,3.26c0.93,0.97,2.53,2.32,4.82,4.07c2.3,1.69,4.21,3.17,5.72,4.44c1.51,1.27,2.71,2.46,3.59,3.58
	c0.88,1.12,1.48,2.25,1.82,3.4C31.84,51.25,32.01,52.51,32.01,53.9 M72,43.25c0,1.75-0.18,3.64-0.55,5.66
	c-0.36,2.02-0.99,3.9-1.87,5.61c-0.88,1.72-2.03,3.14-3.46,4.25c-1.43,1.12-3.23,1.67-5.42,1.67c-3.64,0-6.51-1.45-8.61-4.35
	c-2.09-2.9-3.14-6.88-3.14-11.95c0-5.19,1.06-9.31,3.19-12.36c2.12-3.05,5.01-4.57,8.65-4.57c3.46,0,6.19,1.44,8.19,4.3
	C71,34.39,72,38.3,72,43.25 M84.64,42.79c0-3.38-0.48-6.45-1.45-9.22c-0.97-2.78-2.34-5.16-4.12-7.15c-1.78-1.99-3.9-3.54-6.34-4.66
	c-2.45-1.11-5.15-1.67-8.11-1.67c-3.26,0-6.13,0.62-8.61,1.85c-2.48,1.24-4.77,3.18-6.88,5.83l-0.06-6.6H37.44v67.82h11.62V60.33
	c1.15,1.33,2.25,2.45,3.31,3.35c1.06,0.91,2.13,1.65,3.22,2.22c1.09,0.57,2.24,0.98,3.45,1.22c1.21,0.24,2.51,0.36,3.9,0.36
	c3.08,0,5.96-0.62,8.62-1.85c2.66-1.24,4.96-2.97,6.9-5.2c1.94-2.23,3.45-4.84,4.54-7.82C84.1,49.62,84.64,46.35,84.64,42.79
	 M89.81,66.37h11.93V0H89.81V66.37z M152.68,66.39V21.11h-11.93v24.37c0,2.17-0.09,3.85-0.27,5.03c-0.18,1.18-0.49,2.25-0.91,3.22
	c-1.69,3.74-4.78,5.62-9.27,5.62c-3.51,0-5.97-1.27-7.36-3.81c-0.55-0.96-0.93-2.05-1.14-3.26c-0.21-1.21-0.32-2.96-0.32-5.26v-25.9
	h-11.93v25.73c0,1.75,0.02,3.23,0.05,4.44c0.03,1.21,0.11,2.28,0.23,3.22c0.12,0.94,0.26,1.77,0.41,2.49
	c0.15,0.72,0.38,1.42,0.68,2.08c1.09,2.78,2.85,4.88,5.3,6.3c2.45,1.42,5.45,2.12,9.01,2.12c3.2,0,6.01-0.56,8.43-1.67
	c2.42-1.12,4.77-2.94,7.07-5.48l0.03,6.06H152.68z M204.12,66.37V40.7c0-1.75-0.02-3.24-0.05-4.47c-0.03-1.24-0.1-2.3-0.23-3.21
	c-0.12-0.9-0.27-1.7-0.45-2.39c-0.18-0.69-0.39-1.37-0.63-2.04c-1.09-2.71-2.85-4.8-5.3-6.28c-2.45-1.48-5.45-2.22-9.02-2.22
	c-3.2,0-6.01,0.56-8.43,1.68c-2.42,1.12-4.77,2.95-7.07,5.48l-0.02-6.06H160.9v45.18h12.03V41.97c0-2.11,0.08-3.75,0.23-4.92
	c0.15-1.17,0.44-2.27,0.87-3.3c0.78-1.81,1.98-3.18,3.59-4.11c1.61-0.93,3.53-1.4,5.77-1.4c3.51,0,5.97,1.27,7.36,3.79
	c0.54,0.96,0.92,2.05,1.13,3.25c0.21,1.2,0.32,2.95,0.32,5.24v25.84H204.12z M253.51,63.39l-18.18-22.6l15.37-16.46l-9.04-3.89
	l-16,18.53h-1.27V0.01h-12.03v66.37h12.03V42.33l17.99,24.95L253.51,63.39z M300,47.17v-7.4l-36.17-18.15v8.13l28.03,13.64
	l-28.03,13.82v7.95L300,47.17z M267.33,9.9c-2.22,0-4.02,1.81-4.02,4.06c0,2.29,1.8,4.08,4.02,4.08c2.24,0,4.01-1.79,4.01-4.08
	c0-2.26-1.77-4.06-3.99-4.06H267.33z M267.35,10.53c1.8,0,3.25,1.53,3.25,3.45c0,1.91-1.44,3.45-3.25,3.43
	c-1.81,0-3.27-1.52-3.27-3.45c0-1.9,1.46-3.43,3.25-3.43H267.35z M266.58,14.37h0.5c0.58,0,0.87,0.22,0.97,0.79
	c0.09,0.6,0.2,1.01,0.31,1.15h0.76c-0.07-0.14-0.18-0.42-0.29-1.12c-0.09-0.67-0.36-1.03-0.76-1.1v-0.04
	c0.49-0.14,0.88-0.51,0.88-1.1c0-0.43-0.15-0.74-0.42-0.94c-0.27-0.2-0.72-0.34-1.41-0.34c-0.54,0-0.9,0.05-1.28,0.11v4.53h0.72
	V14.37z M266.58,12.28c0.12-0.02,0.29-0.04,0.52-0.04c0.81,0,1.1,0.4,1.1,0.79c0,0.56-0.51,0.78-1.1,0.78h-0.52V12.28z"/>
</svg>
